<svg height="512pt" viewBox="0 0 512 512.00024" width="512pt" xmlns="http://www.w3.org/2000/svg"><path d="m429.949219 82.050781c-46.460938-46.460937-108.242188-72.050781-173.949219-72.050781-65.710938 0-127.492188 25.589844-173.949219 72.050781-46.460937 46.46875-72.050781 108.238281-72.050781 173.949219 0 89.367188 48.589844 171.839844 126.808594 215.25l.972656.539062c2.464844-4.90625 54.488281-108.371093 58.21875-115.789062h120c.074219.148438 58.0625 115.671875 58.136719 115.828125l1.050781-.578125c78.222656-43.410156 126.8125-125.882812 126.8125-215.25 0-65.710938-25.589844-127.480469-72.050781-173.949219zm0 0" fill="#7c8388"/><path d="m376 166v160c0 16.570312-13.429688 30-30 30-39.175781 0-140.542969 0-180 0-16.570312 0-30-13.429688-30-30v-160c0-49.710938 40.289062-90 90-90h60c49.707031 0 90 40.289062 90 90zm0 0" fill="#76e2f8"/><g fill="#deecf1"><path d="m316 356h-120c-2.066406 4.101562-54.414062 108.21875-58.21875 115.789062l.386719.210938h235.660156l.308594-.171875c-.074219-.15625-58.0625-115.679687-58.136719-115.828125zm0 0"/><path d="m336 156v70h-160v-70c0-11.050781 8.949219-20 20-20h120c11.050781 0 20 8.949219 20 20zm0 0"/><path d="m336 296c0 11.042969-8.957031 20-20 20-11.046875 0-20-8.957031-20-20 0-11.046875 8.953125-20 20-20 11.042969 0 20 8.953125 20 20zm0 0"/><path d="m216 296c0 11.042969-8.953125 20-20 20s-20-8.957031-20-20c0-11.046875 8.953125-20 20-20s20 8.953125 20 20zm0 0"/></g><path d="m176 236h160c5.519531 0 10-4.476562 10-10v-70c0-16.542969-13.460938-30-30-30h-120c-16.542969 0-30 13.457031-30 30v70c0 5.523438 4.476562 10 10 10zm10-80c0-5.515625 4.484375-10 10-10h120c5.511719 0 10 4.484375 10 10v60h-140zm0 0"/><path d="m316 266c-16.542969 0-30 13.457031-30 30 0 16.539062 13.457031 30 30 30 16.539062 0 30-13.460938 30-30 0-16.542969-13.460938-30-30-30zm0 40c-5.515625 0-10-4.488281-10-10 0-5.515625 4.484375-10 10-10 5.511719 0 10 4.484375 10 10 0 5.511719-4.488281 10-10 10zm0 0"/><path d="m196 266c-16.542969 0-30 13.457031-30 30 0 16.539062 13.457031 30 30 30s30-13.460938 30-30c0-16.542969-13.457031-30-30-30zm0 40c-5.515625 0-10-4.488281-10-10 0-5.515625 4.484375-10 10-10 5.511719 0 10 4.484375 10 10 0 5.511719-4.488281 10-10 10zm0 0"/><path d="m266 472c0 5.519531-4.476562 10-10 10s-10-4.480469-10-10c0-5.523438 4.476562-10 10-10s10 4.476562 10 10zm0 0"/><path d="m256 0c-141.480469 0-256 114.492188-256 256 0 90.15625 47.53125 173.582031 124.597656 219.746094l-10.941406 21.761718c-2.480469 4.933594-.492188 10.941407 4.441406 13.425782 4.941406 2.484375 10.949219.480468 13.425782-4.445313l12.316406-24.488281h67.558594c5.523437 0 10-4.480469 10-10 0-5.523438-4.476563-10-10-10h-57.503907l21.621094-43h160.921875l21.582031 43h-57.417969c-5.523437 0-10 4.476562-10 10 0 5.519531 4.476563 10 10 10h67.457032l12.292968 24.484375c2.488282 4.953125 8.503907 6.921875 13.425782 4.449219 4.933594-2.476563 6.925781-8.488282 4.445312-13.421875l-10.902344-21.71875c77.117188-46.160157 124.679688-129.605469 124.679688-219.792969 0-141.480469-114.488281-256-256-256zm-70.425781 399 16.589843-33h107.667969l16.5625 33zm-19.574219-53c-11.027344 0-20-8.972656-20-20v-160c0-44.113281 35.886719-80 80-80h60c44.109375 0 80 35.886719 80 80v160c0 11.027344-8.972656 20-20 20zm212.324219 111.863281-19.511719-38.863281h17.1875c5.519531 0 10-4.480469 10-10 0-5.523438-4.480469-10-10-10h-27.226562l-16.566407-33h13.789063c22.058594 0 40-17.945312 40-40v-160c0-55.140625-44.855469-100-100-100h-59.996094c-55.140625 0-100 44.859375-100 100v160c0 22.054688 17.941406 40 40 40h13.777344l-16.59375 33h-27.183594c-5.523438 0-10 4.476562-10 10 0 5.519531 4.476562 10 10 10h17.128906l-19.519531 38.824219c-70.3125-42.71875-113.609375-119.207031-113.609375-201.824219 0-130.429688 105.546875-236 236-236 130.425781 0 236 105.546875 236 236 0 82.648438-43.335938 159.164062-113.675781 201.863281zm0 0"/></svg>